<svg xmlns="http://www.w3.org/2000/svg" viewBox="0 0 41.3619 16.297" role="img" aria-label="TUF logo">
  <path fill="#FFFFFF" transform="matrix(1 0 0 -1 41.3619 16.2558)" d="M 0 0 L 0 -0.021 C -1.568 -1.246 -3.124 -2.471 -4.692 -3.706 C -4.783 -3.768 -4.862 -3.799 -4.987 -3.799 L -14.518 -3.799 L -14.689 -3.799 C -14.711 -3.892 -14.723 -5.776 -14.689 -5.909 C -12.303 -5.899 -9.906 -5.889 -7.486 -5.868 C -7.52 -5.909 -7.554 -5.94 -7.589 -5.961 C -8.418 -6.62 -9.247 -7.279 -10.088 -7.927 C -10.781 -8.483 -11.485 -9.029 -12.178 -9.574 C -12.257 -9.646 -12.348 -9.677 -12.462 -9.677 C -12.905 -9.677 -13.348 -9.688 -13.791 -9.688 C -14.052 -9.698 -14.314 -9.698 -14.575 -9.708 L -14.711 -9.708 L -14.711 -9.852 L -14.711 -11.541 C -14.711 -11.623 -14.734 -11.675 -14.802 -11.736 C -16.302 -12.91 -17.801 -14.084 -19.289 -15.257 C -19.687 -15.566 -20.073 -15.875 -20.471 -16.184 C -20.494 -16.204 -20.528 -16.225 -20.573 -16.256 C -20.607 -16.235 -20.641 -16.204 -20.675 -16.184 C -21.811 -15.298 -22.936 -14.413 -24.061 -13.528 C -24.833 -12.931 -25.594 -12.323 -26.355 -11.726 C -26.446 -11.664 -26.48 -11.592 -26.48 -11.489 C -26.469 -11.294 -26.48 -11.108 -26.48 -10.913 L -26.48 -4.252 C -26.48 -4.149 -26.469 -4.046 -26.469 -3.943 C -26.48 -3.902 -26.48 -3.861 -26.48 -3.799 L -26.662 -3.799 L -36.318 -3.799 C -36.443 -3.799 -36.534 -3.768 -36.636 -3.696 C -37.829 -2.759 -39.022 -1.812 -40.226 -0.875 C -40.555 -0.618 -40.885 -0.36 -41.214 -0.103 C -41.26 -0.051 -41.305 0 -41.362 0.041 L -30.808 0.041 C -30.877 0.041 -30.956 0.021 -31.024 0.021 L -36.307 0.021 L -36.488 0.021 L -36.488 0 L -22.3 0 L -22.3 -0.165 L -22.3 -9.482 C -22.3 -9.564 -22.288 -9.626 -22.22 -9.677 C -21.698 -10.079 -21.186 -10.48 -20.675 -10.882 C -20.641 -10.913 -20.607 -10.933 -20.573 -10.944 C -20.55 -10.933 -20.539 -10.923 -20.528 -10.923 C -20.016 -10.522 -19.505 -10.11 -18.994 -9.719 C -18.914 -9.657 -18.88 -9.585 -18.88 -9.492 L -18.88 -5.693 L -18.88 -0.103 C -18.88 -0.072 -18.88 -0.041 -18.869 -0.01 L -18.699 -0.01 C -12.541 -0.01 -6.373 -0.01 -0.216 0 Z"/>
</svg>
