<?xml version="1.0" encoding="UTF-8"?><svg id="Layer_2" xmlns="http://www.w3.org/2000/svg" viewBox="0 0 89.73 39.3"><defs><style>.cls-1{fill:#fff;}</style></defs><g id="Layer_1-2"><g id="TUF_Chest_Logo"><path class="cls-1" d="M48.77,.39h40.7c-.08,.08-.17,.25-.25,.25-3.23,2.89-6.54,5.69-9.77,8.5-.17,.17-.51,.25-.85,.25h-20.82v5.01h15.55c-.17,.08-.25,.25-.42,.34l-9.43,8.16c-.34,.34-.68,.51-1.19,.51-1.44-.08-2.97,0-4.5,0v4.25c0,.17-.08,.51-.25,.68-4.08,3.48-8.07,6.97-12.15,10.54-.08,0-.17,.08-.25,.17-.93-.76-1.78-1.53-2.63-2.29-3.23-2.8-6.46-5.61-9.77-8.33-.25-.25-.34-.51-.34-.93V9.39H11.29c-.42,0-.68-.08-1.02-.34C7.04,6.25,3.82,3.44,.67,.73c-.17-.17-.25-.34-.42-.51H10.78c.17,.08,.42,.08,.59,.08,7.73,0,15.47,0,23.2,.08h6.8V22.56c0,.51,.17,.76,.51,1.1,1.1,.85,2.12,1.78,3.23,2.72,1.19-1.02,2.29-1.95,3.48-2.97,.08-.17,.17-.51,.17-.68V.39Z"/></g></g></svg>