<?xml version="1.0" encoding="UTF-8"?><svg id="Layer_2" xmlns="http://www.w3.org/2000/svg" xmlns:xlink="http://www.w3.org/1999/xlink" viewBox="0 0 329.69 36.57"><defs><style>.cls-1{fill:url(#linear-gradient);}.cls-2{fill:#fff;}.cls-3{fill:url(#linear-gradient-3);}.cls-4{fill:url(#linear-gradient-4);}.cls-5{fill:url(#linear-gradient-2);}.cls-6{fill:url(#linear-gradient-5);}</style><linearGradient id="linear-gradient" x1="284.92" y1="17.89" x2="329.69" y2="17.89" gradientTransform="matrix(1, 0, 0, 1, 0, 0)" gradientUnits="userSpaceOnUse"><stop offset="0" stop-color="#3cc0ed"/><stop offset="1" stop-color="#478cca"/></linearGradient><linearGradient id="linear-gradient-2" x1="189.89" y1="17.85" x2="235.83" y2="17.85" xlink:href="#linear-gradient"/><linearGradient id="linear-gradient-3" x1="237.23" y1="17.81" x2="283.29" y2="17.81" xlink:href="#linear-gradient"/><linearGradient id="linear-gradient-4" x1="138" y1="18.29" x2="166.01" y2="18.29" xlink:href="#linear-gradient"/><linearGradient id="linear-gradient-5" x1="154.82" y1="18.48" x2="182.91" y2="18.48" xlink:href="#linear-gradient"/></defs><g id="Layer_1-2"><g><path class="cls-1" d="M306.84,8.83c7.09,0,14.18,0,21.24,0,.59-3.16,1.03-5.57,1.61-8.69-10.34,0-19.98-.1-29.6,.09-1.89,.04-3.89,.93-5.61,1.86-4.75,2.56-7.28,8.24-5.94,13.1,1.47,5.33,5.8,6.41,10.5,6.61,4.32,.18,8.67-.12,12.97,.26,1.62,.15,3.12,1.63,4.68,2.5-1.64,1.05-3.23,2.91-4.92,3-6.64,.35-13.3,.13-19.96,.16-7.15,.03-7.24,.15-6.65,7.87,9.94,0,19.91,.22,29.87-.08,6.51-.2,11.62-6.31,11.43-12.81-.17-5.63-4.12-8.58-11.67-8.74-4.32-.09-8.66-.06-12.97-.4-1.2-.1-2.31-1.33-3.47-2.04,1.17-.89,2.22-2.19,3.54-2.57,1.53-.45,3.3-.11,4.96-.11Z"/><path class="cls-5" d="M226.31,.21c-7.14-.28-14.31-.29-21.45,.01-5.58,.24-10.15,2.98-11.66,8.53-1.61,5.89-2.55,12-3.24,18.08-.59,5.25,2.47,8.47,7.76,8.75,3.98,.21,7.98,.04,11.97,.04v.04c3.66,0,7.32,.08,10.97-.02,6.3-.16,10.68-3.78,11.99-9.84,.98-4.54,1.98-9.07,2.84-13.63,1.4-7.5-1.68-11.69-9.19-11.98Zm-1.87,18.87c-1.4,8.5-1.67,8.47-10.4,8.52-3.48,.02-6.96-.05-10.44-.02-3.39,.03-4.43-1.63-3.61-4.76,.21-.8,.42-1.6,.59-2.41,2.74-12.98-.11-11.5,13.77-11.56,.66,0,1.33,0,1.99,0,12.43-.12,9.84-.25,8.11,10.23Z"/><path class="cls-3" d="M274.67,.26c-10.12-.24-20.24-.08-30.95-.08-2.16,11.76-4.3,23.37-6.49,35.3h9.42c1.85-8.88,3.67-17.58,5.56-26.63,6.05,0,11.85-.15,17.62,.13,1.12,.05,2.17,1.73,3.25,2.65-1.05,1.07-1.97,2.84-3.18,3.08-2.57,.49-5.29,.19-7.95,.19-7.61,.02-7.68,.1-7.16,8.58,4.09,0,8.23,0,12.36,0,1.16,0,2.43,.28,3.47-.08,2.63-.91,5.43-1.74,7.68-3.29,3.92-2.7,5.84-9.43,4.62-13.9-1.16-4.24-4.45-5.86-8.26-5.95Z"/><path class="cls-4" d="M157.25,1.48c-6.8,11.31-12.91,23.03-19.24,34.62,.28,.42,7.69,.19,8.87-1.72,6.76-10.96,12.83-22.35,19.13-33.59-.27-.5-7.74-1.01-8.76,.69Z"/><path class="cls-6" d="M173.92,2.01c-6.69,10.99-12.69,22.41-19.1,34.01,5.78,1.58,8.33-.35,11.17-5.06,2.49-4.13,2.92-5.18,4.37-7.79,4.2-7.57,8.37-15.15,12.55-22.72-2.63-.14-5.69-.22-8.98,1.56Z"/></g><g><path class="cls-2" d="M52.01,35.45V1.74h8.19V26.46h14.95V1.58c2.65,0,5.1-.08,7.53,.09,.33,.02,.84,1.26,.84,1.94,.06,8.17,.04,16.33,.04,24.5,0,2.4,0,4.8,0,7.34h-31.54Z"/><path class="cls-2" d="M108.17,26.12v9.36h-8.21V1.72h30.23c-1.52,1.65-6.98,9-6.98,9-1.5,.05-10.61,.03-14.86,.03v6.47h12.72c-1.75,2.97-3.48,6.03-5.07,8.9-4.77-.02-5.26-.02-7.83,0Z"/><path class="cls-2" d="M15.04,10.78c-2.96,0-5.55-.08-8.14,.03-1.32,.06-2.09-.46-2.72-1.64C2.9,6.79,1.53,4.46,0,1.76c.93-.07,1.56-.15,2.18-.15,10.39,0,20.78,.04,31.17-.05,1.79-.02,2.35,.56,2.24,2.41-.13,2.17-.03,4.36-.03,6.75h-12.18v24.73H15.04V10.78Z"/></g></g></svg>